<?xml version="1.0" standalone="no"?>
<!DOCTYPE svg PUBLIC "-//W3C//DTD SVG 20010904//EN"
 "http://www.w3.org/TR/2001/REC-SVG-20010904/DTD/svg10.dtd">
<svg version="1.0" xmlns="http://www.w3.org/2000/svg"
 width="900.000000pt" height="900.000000pt" viewBox="0 0 900.000000 900.000000"
 preserveAspectRatio="xMidYMid meet">
<metadata>
Created by potrace 1.14, written by Peter Selinger 2001-2017
</metadata>
<g transform="translate(0.000000,900.000000) scale(0.100000,-0.100000)"
fill="#000000" stroke="none">
<path d="M2416 6584 l-2084 -2084 1046 -1047 c576 -575 1514 -1513 2085 -2084
l1037 -1037 2084 2084 2084 2084 -1042 1042 c-574 574 -1512 1512 -2084 2085
l-1042 1041 -2084 -2084z m4138 -108 c457 -461 1081 -1091 1386 -1398 305
-308 554 -563 553 -566 -2 -4 -15 -7 -30 -8 -104 -5 -296 -17 -338 -20 -27 -2
-95 -6 -150 -9 -55 -2 -134 -7 -175 -10 -113 -8 -324 -20 -500 -30 -151 -8
-280 -16 -345 -20 -38 -3 -113 -8 -165 -10 -52 -3 -124 -7 -160 -9 -129 -9
-276 -18 -335 -21 -33 -2 -109 -7 -170 -10 -60 -4 -139 -8 -175 -10 -36 -2
-108 -6 -160 -9 -113 -8 -206 -13 -355 -21 -60 -3 -137 -8 -170 -10 -33 -2
-105 -7 -159 -10 -55 -3 -101 -7 -103 -9 -4 -4 -7 -27 -18 -131 -3 -33 -8 -73
-10 -90 -3 -16 -7 -50 -10 -75 -10 -101 -24 -220 -35 -310 -5 -41 -12 -100
-15 -130 -4 -30 -8 -66 -10 -80 -2 -14 -7 -54 -10 -90 -4 -36 -8 -72 -10 -80
-2 -8 -6 -49 -10 -90 -4 -41 -8 -82 -10 -90 -4 -24 -15 -110 -20 -165 -3 -27
-7 -68 -10 -90 -3 -22 -7 -60 -10 -85 -3 -25 -7 -61 -10 -80 -5 -44 -12 -107
-20 -185 -3 -33 -8 -71 -10 -85 -3 -14 -7 -52 -10 -85 -4 -33 -8 -71 -10 -85
-2 -14 -7 -52 -10 -85 -3 -33 -8 -71 -10 -85 -2 -14 -7 -50 -10 -80 -3 -30 -8
-71 -10 -90 -5 -40 -13 -101 -20 -175 -3 -27 -8 -61 -10 -75 -3 -14 -7 -52
-10 -85 -3 -33 -7 -69 -9 -80 -2 -11 -7 -54 -11 -95 -4 -41 -8 -77 -10 -80 -1
-3 -6 -41 -10 -84 -4 -43 -8 -86 -10 -95 -1 -9 -6 -45 -9 -81 -4 -36 -11 -90
-15 -120 -5 -30 -9 1642 -9 3715 l-1 3770 560 -565 c309 -311 935 -942 1393
-1404z m-2149 -1791 c0 -2060 -3 -3745 -6 -3745 -4 0 -10 37 -14 83 -4 45 -9
91 -11 102 -2 11 -6 40 -8 65 -3 25 -12 106 -21 180 -8 74 -17 151 -19 170 -2
19 -11 94 -20 165 -9 72 -18 150 -20 175 -3 25 -7 61 -10 80 -6 44 -14 107
-21 185 -3 33 -8 70 -10 82 -2 13 -9 67 -15 120 -6 54 -13 112 -15 128 -2 17
-7 57 -10 90 -3 33 -8 71 -10 85 -2 14 -7 50 -10 80 -4 30 -8 66 -10 80 -2 14
-7 54 -10 90 -3 36 -7 76 -10 90 -3 14 -7 45 -9 70 -7 64 -25 219 -30 260 -3
19 -7 58 -10 85 -3 28 -17 147 -31 265 -14 118 -28 233 -30 255 -3 22 -7 56
-10 75 -2 19 -9 80 -15 135 -6 55 -13 111 -15 125 -2 14 -7 54 -10 90 -4 36
-9 72 -10 80 -1 8 -6 44 -10 80 -9 80 -14 124 -19 170 -5 34 -13 107 -21 180
-6 57 -17 144 -20 160 -2 8 -6 49 -10 90 -4 41 -9 83 -10 92 -2 9 -6 44 -10
77 -3 33 -7 68 -9 78 -2 10 -7 52 -11 93 -7 71 -24 131 -25 87 0 -10 -9 -39
-19 -65 -17 -42 -107 -286 -180 -492 -166 -462 -257 -701 -271 -704 -8 -3 -42
-7 -75 -11 -56 -5 -76 -8 -187 -20 -24 -2 -72 -7 -108 -10 -36 -3 -81 -8 -100
-10 -19 -2 -57 -6 -85 -9 -132 -13 -181 -19 -195 -21 -8 -2 -53 -6 -99 -10
-47 -4 -92 -8 -100 -10 -9 -1 -51 -6 -94 -10 -43 -3 -86 -8 -95 -10 -9 -1 -48
-6 -87 -9 -66 -7 -98 -10 -197 -21 -24 -2 -72 -7 -108 -10 -90 -9 -132 -14
-136 -17 -2 -3 26 -42 109 -152 70 -93 140 -187 169 -226 18 -25 35 -47 38
-50 3 -3 30 -39 60 -80 30 -41 57 -77 60 -80 3 -3 17 -21 30 -40 14 -19 28
-39 32 -45 19 -24 264 -352 838 -1120 612 -819 838 -1121 853 -1140 4 -5 31
-41 59 -80 28 -38 54 -72 57 -75 3 -3 17 -21 30 -40 14 -19 36 -51 50 -70 14
-19 -474 463 -1084 1072 -611 609 -1431 1426 -1823 1816 l-712 709 57 21 c32
12 146 51 253 87 107 37 249 85 315 107 66 23 203 69 305 104 102 34 392 133
645 219 253 86 483 163 510 172 58 17 64 22 97 83 14 25 34 61 45 80 44 79
148 265 206 370 16 30 49 89 72 130 23 41 53 95 67 120 14 25 40 72 58 105 18
33 50 91 71 128 22 38 39 70 39 72 0 2 20 38 45 79 25 42 45 78 45 81 0 2 14
27 30 55 27 46 59 104 125 225 12 22 53 96 92 165 39 69 84 150 100 180 17 30
41 75 55 100 49 87 432 776 462 831 17 31 76 137 131 237 55 100 102 182 105
182 3 0 5 -1685 5 -3745z"/>
<path d="M5379 7063 c-1 -26 -6 -62 -12 -108 -3 -22 -9 -64 -12 -94 -4 -30 -8
-61 -10 -70 -1 -9 -6 -47 -10 -84 -3 -37 -8 -76 -10 -85 -2 -16 -10 -77 -21
-164 -2 -21 -6 -57 -9 -80 -3 -24 -8 -61 -11 -83 -2 -22 -7 -56 -9 -75 -3 -19
-7 -55 -10 -80 -3 -25 -7 -61 -9 -80 -3 -19 -8 -60 -12 -90 -3 -30 -8 -62 -9
-70 -1 -8 -6 -44 -10 -80 -4 -36 -9 -72 -10 -80 -2 -8 -6 -44 -10 -80 -3 -36
-8 -76 -10 -90 -9 -58 -32 -245 -41 -325 -3 -33 -8 -68 -10 -79 -2 -10 -6 -44
-9 -75 -3 -31 -8 -68 -11 -83 l-6 -28 1219 0 1218 0 -151 148 c-129 125 -318
309 -714 692 -42 41 -186 181 -320 310 -133 129 -277 269 -320 310 -150 145
-556 539 -607 589 -29 28 -55 51 -58 51 -3 0 -5 -8 -6 -17z"/>
</g>
</svg>
